<svg xmlns="http://www.w3.org/2000/svg" viewBox="0 0 512 512" width="100%" height="100%">
  <rect width="512" height="512" rx="115" fill="#0b1433"/>
  
  <path d="M 130 230 
           Q 130 248 148 248 
           Q 130 248 130 266 
           Q 130 248 112 248 
           Q 130 248 130 230 Z" 
        fill="#cc9f55"/>
        
  <path d="M 360 130 
           Q 360 155 385 155 
           Q 360 155 360 180 
           Q 360 155 335 155 
           Q 360 155 360 130 Z" 
        fill="#cc9f55"/>
        
  <path d="M 203 125 
           C 190 240 160 340 138 420 
           C 180 410 220 400 258 390 
           C 240 280 215 180 203 125 Z" 
        fill="#d8af67"/>
        
  <path d="M 203 125 
           C 215 180 240 280 258 390 
           C 290 395 320 398 355 400 
           C 350 280 280 170 203 125 Z" 
        fill="#bc934e"/>
</svg>